<?xml version="1.0" encoding="UTF-8" standalone="no"?>
<svg
   xmlns:dc="http://purl.org/dc/elements/1.1/"
   xmlns:cc="http://creativecommons.org/ns#"
   xmlns:rdf="http://www.w3.org/1999/02/22-rdf-syntax-ns#"
   xmlns:svg="http://www.w3.org/2000/svg"
   xmlns="http://www.w3.org/2000/svg"
   xmlns:sodipodi="http://sodipodi.sourceforge.net/DTD/sodipodi-0.dtd"
   xmlns:inkscape="http://www.inkscape.org/namespaces/inkscape"
   aria-hidden="true"
   focusable="false"
   data-prefix="fas"
   data-icon="times"
   class="svg-inline--fa fa-times fa-w-11"
   role="img"
   viewBox="0 0 512 512"
   version="1.1"
   id="svg4"
   sodipodi:docname="times-solid.svg"
   width="512"
   height="512"
   inkscape:version="1.0.1 (3bc2e813f5, 2020-09-07)">
  <metadata
     id="metadata10">
    <rdf:RDF>
      <cc:Work
         rdf:about="">
        <dc:format>image/svg+xml</dc:format>
        <dc:type
           rdf:resource="http://purl.org/dc/dcmitype/StillImage" />
        <dc:title></dc:title>
      </cc:Work>
    </rdf:RDF>
  </metadata>
  <defs
     id="defs8" />
  <sodipodi:namedview
     pagecolor="#ffffff"
     bordercolor="#666666"
     borderopacity="1"
     objecttolerance="10"
     gridtolerance="10"
     guidetolerance="10"
     inkscape:pageopacity="0"
     inkscape:pageshadow="2"
     inkscape:window-width="1920"
     inkscape:window-height="1015"
     id="namedview6"
     showgrid="false"
     inkscape:zoom="1.6386719"
     inkscape:cx="176"
     inkscape:cy="256"
     inkscape:window-x="0"
     inkscape:window-y="0"
     inkscape:window-maximized="1"
     inkscape:current-layer="svg4" />
  <path
     fill="#ffffff"
     d="M 322.72,256 422.79,155.93 c 12.28,-12.28 12.28,-32.19 0,-44.48 L 400.55,89.21 c -12.28,-12.28 -32.19,-12.28 -44.48,0 L 256,189.28 155.93,89.21 c -12.28,-12.28 -32.19,-12.28 -44.48,0 l -22.24,22.24 c -12.28,12.28 -12.28,32.19 0,44.48 L 189.28,256 89.21,356.07 c -12.28,12.28 -12.28,32.19 0,44.48 l 22.24,22.24 c 12.28,12.28 32.2,12.28 44.48,0 L 256,322.72 356.07,422.79 c 12.28,12.28 32.2,12.28 44.48,0 l 22.24,-22.24 c 12.28,-12.28 12.28,-32.19 0,-44.48 z"
     id="path2" />
</svg>
